<svg id="Layer_1" enable-background="new 0 0 511.921 511.921" height="512" viewBox="0 0 511.921 511.921" width="512" xmlns="http://www.w3.org/2000/svg"><g><path d="m86.841 122.835c-4.64 0-9.07 2.01-12.1 5.53-16.27 18.92-65.1 89-66.74 250.11-.05 5.22 2.46 10.14 6.71 13.18l37.06 26.47c6.86 4.9 16.34 3.64 21.68-2.89l62.51-76.4c6.686 5.022 14.995 8 24 8 9.006 0 17.315-2.978 24.001-8h143.998c6.686 5.022 14.995 8 24.001 8 9.005 0 17.315-2.978 24-8l62.51 76.4c5.34 6.53 14.82 7.79 21.68 2.89l37.06-26.47c4.25-3.04 6.76-7.96 6.71-13.18-1.64-161.11-50.47-231.19-66.74-250.11-3.03-3.52-7.46-5.53-12.1-5.53z" fill="#f1cc76"/><path d="m503.921 378.475c.05 5.22-2.46 10.14-6.71 13.18l-37.06 26.47c-6.86 4.9-16.34 3.64-21.68-2.89l-5.25-6.42 24.03-17.16c4.25-3.04 6.76-7.96 6.71-13.18-1.64-161.11-50.47-231.19-66.74-250.11-3.03-3.52-7.46-5.53-12.1-5.53h39.96c4.64 0 9.07 2.01 12.1 5.53 16.27 18.92 65.1 89 66.74 250.11z" fill="#ebb15d"/><path d="m199.961 306.835c0 22.131-17.958 40-40 40-20.265 0-36.94-15.051-39.62-34.48-3.188-22.956 13.661-43.527 36.31-45.38 23.434-1.936 43.31 16.571 43.31 39.86z" fill="#edebfd"/><path d="m147.978 268.675c30.981 9.748 38.031 50.597 11.983 70.16-3.582 2.688-7.632 4.784-12 6.158 25.679 8.076 52-11.09 52-38.158 0-27.032-26.253-46.229-51.983-38.16z" fill="#d2d2fc"/><path d="m151.961 106.835v16h-64v-16c0-8.84 7.16-16 16-16h32c8.84 0 16 7.16 16 16z" fill="#edebfd"/><path d="m391.961 306.835c0 32.892-37.666 51.761-64 32-9.72-7.3-16-18.92-16-32 0-22.09 17.91-40 40-40 22.034 0 40 17.857 40 40z" fill="#edebfd"/><path d="m339.943 268.675c18.244 5.721 30.383 23.909 27.637 43.68-2.101 15.228-12.845 27.99-27.62 32.638 25.775 8.107 52-11.169 52-38.158.001-27.099-26.366-46.231-52.017-38.16z" fill="#d2d2fc"/><path d="m423.961 106.835v16h-64v-16c0-8.84 7.16-16 16-16h32c8.84 0 16 7.16 16 16z" fill="#edebfd"/><path d="m407.961 90.835h-32c8.84 0 16 7.16 16 16v16h32v-16c0-8.84-7.16-16-16-16z" fill="#d2d2fc"/><path d="m135.961 90.835h-32c8.84 0 16 7.16 16 16v16h32v-16c0-8.84-7.16-16-16-16z" fill="#d2d2fc"/><path d="m335.961 122.835-14.39 56c-.94 4.67-5.04 8.04-9.81 8.04h-111.6c-4.77 0-8.87-3.37-9.81-8.04l-14.39-56z" fill="#edebfd"/><path d="m335.961 122.835-14.39 56c-.94 4.67-5.04 8.04-9.81 8.04h-32c4.77 0 8.87-3.37 9.81-8.04l14.39-56z" fill="#d2d2fc"/><path d="m115.961 186.835c4.418 0 8-3.582 8-8v-8c0-4.418-3.582-8-8-8s-8 3.582-8 8v8c0 4.418 3.581 8 8 8z"/><path d="m115.961 210.835c-4.418 0-8 3.582-8 8v8c0 4.418 3.582 8 8 8s8-3.582 8-8v-8c0-4.418-3.582-8-8-8z"/><path d="m87.961 206.835h8c4.418 0 8-3.582 8-8s-3.582-8-8-8h-8c-4.418 0-8 3.582-8 8s3.581 8 8 8z"/><path d="m135.961 206.835h8c4.418 0 8-3.582 8-8s-3.582-8-8-8h-8c-4.418 0-8 3.582-8 8s3.581 8 8 8z"/><circle cx="391.961" cy="178.835" r="8"/><circle cx="415.961" cy="202.835" r="8"/><circle cx="367.961" cy="202.835" r="8"/><circle cx="391.961" cy="226.835" r="8"/><path d="m263.961 298.835c-5.596 0-10.404 0-16 0-4.418 0-8 3.582-8 8s3.582 8 8 8h16c4.418 0 8-3.582 8-8s-3.582-8-8-8z"/><path d="m483.562 197.382c-14.803-41.013-31.613-64.114-40.318-74.237-3.014-3.501-6.942-6.005-11.283-7.3v-9.011c0-13.234-10.767-24-24-24h-32c-13.233 0-24 10.766-24 24v8h-192v-8c0-13.234-10.767-24-24-24h-32c-13.233 0-24 10.766-24 24v9.011c-4.342 1.296-8.27 3.8-11.286 7.303-8.703 10.12-25.512 33.221-40.315 74.234-18.106 50.162-27.647 111.062-28.359 181.016-.075 7.818 3.684 15.206 10.06 19.767l37.06 26.47c4.2 3 9.072 4.452 13.913 4.452 6.983 0 13.896-3.024 18.608-8.786l58.04-70.937c6.833 3.596 14.411 5.471 22.278 5.471 9.538 0 18.646-2.763 26.521-8h138.959c7.874 5.237 16.983 8 26.521 8 7.867 0 15.445-1.875 22.278-5.471l58.039 70.935c7.98 9.758 22.265 11.662 32.523 4.336l37.064-26.473c6.371-4.557 10.13-11.945 10.055-19.769-.712-69.949-10.253-130.849-28.358-181.011zm-115.601-90.547c0-4.411 3.589-8 8-8h32c4.411 0 8 3.589 8 8v8h-48zm-42.316 24-11.822 46.009c-.035.136-.067.274-.095.412-.188.938-1.016 1.619-1.967 1.619h-111.6c-.951 0-1.779-.681-1.967-1.619-.028-.138-.06-.276-.095-.412l-11.822-46.009zm-229.684-24c0-4.411 3.589-8 8-8h32c4.411 0 8 3.589 8 8v8h-48zm83.195 225.603c-5.578 4.185-12.216 6.397-19.196 6.397-6.981 0-13.62-2.213-19.196-6.397-8.137-6.111-12.804-15.443-12.804-25.603 0-17.645 14.355-32 32-32s32 14.355 32 32c.001 10.16-4.666 19.492-12.804 25.603zm192.003-.002c-5.579 4.186-12.217 6.399-19.198 6.399-6.98 0-13.618-2.212-19.196-6.397-8.137-6.111-12.804-15.443-12.804-25.603 0-17.645 14.355-32 32-32s32 14.355 32 32c0 10.16-4.667 19.492-12.802 25.601zm121.402 52.709-37.06 26.47c-3.419 2.441-8.179 1.807-10.838-1.446l-57.678-70.494c8.325-8.825 12.976-20.418 12.976-32.84 0-26.467-21.533-48-48-48s-48 21.533-48 48c0 8.614 2.238 16.829 6.385 24h-108.77c4.147-7.171 6.385-15.386 6.385-24 0-26.467-21.533-48-48-48s-48 21.533-48 48c0 12.421 4.65 24.014 12.976 32.84l-57.679 70.495c-2.66 3.252-7.42 3.886-10.837 1.445l-37.056-26.467c-2.132-1.525-3.39-3.991-3.365-6.592 1.622-159.268 50.013-227.773 64.803-244.972 1.504-1.747 3.705-2.749 6.037-2.749h82.916l12.801 49.816c1.778 8.257 9.142 14.224 17.604 14.224h111.6c8.461 0 15.826-5.968 17.604-14.224l12.801-49.816h82.916c2.333 0 4.533 1.002 6.035 2.746 14.792 17.202 63.184 85.707 64.806 244.97.023 2.606-1.235 5.072-3.362 6.594z"/><circle cx="255.961" cy="266.835" r="8"/></g></svg>